<?xml version="1.0" encoding="UTF-8" standalone="no"?>
<svg
   xmlns:dc="http://purl.org/dc/elements/1.1/"
   xmlns:cc="http://creativecommons.org/ns#"
   xmlns:rdf="http://www.w3.org/1999/02/22-rdf-syntax-ns#"
   xmlns:svg="http://www.w3.org/2000/svg"
   xmlns="http://www.w3.org/2000/svg"
   xmlns:xlink="http://www.w3.org/1999/xlink"
   xmlns:sodipodi="http://sodipodi.sourceforge.net/DTD/sodipodi-0.dtd"
   xmlns:inkscape="http://www.inkscape.org/namespaces/inkscape"
   width="200.49902"
   height="200.44437"
   version="1.1"
   id="svg5284"
   sodipodi:docname="instagram-logo.svg"
   inkscape:version="0.92.3 (2405546, 2018-03-11)">
  <metadata
     id="metadata5288">
    <rdf:RDF>
      <cc:Work
         rdf:about="">
        <dc:format>image/svg+xml</dc:format>
        <dc:type
           rdf:resource="http://purl.org/dc/dcmitype/StillImage" />
      </cc:Work>
    </rdf:RDF>
  </metadata>
  <sodipodi:namedview
     pagecolor="#ffffff"
     bordercolor="#666666"
     borderopacity="1"
     objecttolerance="10"
     gridtolerance="10"
     guidetolerance="10"
     inkscape:pageopacity="0"
     inkscape:pageshadow="2"
     inkscape:window-width="1920"
     inkscape:window-height="1001"
     id="namedview5286"
     showgrid="false"
     inkscape:zoom="1.7878788"
     inkscape:cx="135.47602"
     inkscape:cy="135.44437"
     inkscape:window-x="-9"
     inkscape:window-y="-9"
     inkscape:window-maximized="1"
     inkscape:current-layer="svg5284" />
  <defs
     id="defs5276">
    <linearGradient
       id="b">
      <stop
         offset="0"
         stop-color="#3771c8"
         id="stop5258" />
      <stop
         stop-color="#3771c8"
         offset=".128"
         id="stop5260" />
      <stop
         offset="1"
         stop-color="#60f"
         stop-opacity="0"
         id="stop5262" />
    </linearGradient>
    <linearGradient
       id="a">
      <stop
         offset="0"
         stop-color="#fd5"
         id="stop5265" />
      <stop
         offset=".1"
         stop-color="#fd5"
         id="stop5267" />
      <stop
         offset=".5"
         stop-color="#ff543e"
         id="stop5269" />
      <stop
         offset="1"
         stop-color="#c837ab"
         id="stop5271" />
    </linearGradient>
    <radialGradient
       id="c"
       cx="158.429"
       cy="578.08801"
       r="65"
       xlink:href="#a"
       gradientUnits="userSpaceOnUse"
       gradientTransform="matrix(0,-3.0562334,2.8433126,0,-1590.4271,700.0788)"
       fx="158.429"
       fy="578.08801" />
    <radialGradient
       id="d"
       cx="147.694"
       cy="473.45499"
       r="65"
       xlink:href="#b"
       gradientUnits="userSpaceOnUse"
       gradientTransform="matrix(0.26821725,1.3395751,-5.5231721,1.1058989,2541.7747,-707.00088)"
       fx="147.694"
       fy="473.45499" />
  </defs>
  <path
     d="M 100.28224,0 C 58.428993,0 46.188516,0.043176 43.809195,0.2405536 35.220198,0.9545043 29.87559,2.3068473 24.05296,5.2058265 19.56571,7.4340312 16.026797,10.016898 12.534144,13.637538 6.1733513,20.240426 2.3183263,28.363736 0.92280733,38.019804 c -0.678485,4.687711 -0.875862,5.643757 -0.915954,29.588092 -0.01542,7.981444 0,18.485618 0,32.574964 0,41.81932 0.04626,54.04746 0.246721,56.42215 0.693905,8.3577 2.00461397,13.61595 4.78023197,19.36765 5.3045147,11.00996 15.4355217,19.27513 27.3706807,22.35915 4.132588,1.06399 8.696938,1.64995 14.556577,1.92751 2.482636,0.10794 27.787024,0.18505 53.106836,0.18505 25.3198,0 50.63961,-0.0308 53.06057,-0.15421 6.78484,-0.31919 10.72468,-0.8481 15.08086,-1.97377 12.01226,-3.09944 21.95822,-11.24125 27.37068,-22.40541 2.72165,-5.61291 4.10174,-11.07163 4.72626,-18.99294 0.1357,-1.72705 0.19275,-29.26272 0.19275,-56.76139 0,-27.503297 -0.0617,-54.988087 -0.19738,-56.715138 -0.63222,-8.049294 -2.01232,-13.46175 -4.82186,-19.182607 C 193.17447,19.57582 190.61473,16.07854 186.89849,12.502619 180.2663,6.1680408 172.15533,2.3130153 162.49001,0.9190381 157.80693,0.2420956 156.87401,0.0416343 132.91117,0 Z"
     id="path5278"
     style="fill:url(#c);stroke-width:1.54201019"
     inkscape:connector-curvature="0" />
  <path
     d="M 100.28224,0 C 58.428993,0 46.188516,0.043176 43.809195,0.2405536 35.220198,0.9545043 29.87559,2.3068473 24.05296,5.2058265 19.56571,7.4340312 16.026797,10.016898 12.534144,13.637538 6.1733513,20.240426 2.3183263,28.363736 0.92280733,38.019804 c -0.678485,4.687711 -0.875862,5.643757 -0.915954,29.588092 -0.01542,7.981444 0,18.485618 0,32.574964 0,41.81932 0.04626,54.04746 0.246721,56.42215 0.693905,8.3577 2.00461397,13.61595 4.78023197,19.36765 5.3045147,11.00996 15.4355217,19.27513 27.3706807,22.35915 4.132588,1.06399 8.696938,1.64995 14.556577,1.92751 2.482636,0.10794 27.787024,0.18505 53.106836,0.18505 25.3198,0 50.63961,-0.0308 53.06057,-0.15421 6.78484,-0.31919 10.72468,-0.8481 15.08086,-1.97377 12.01226,-3.09944 21.95822,-11.24125 27.37068,-22.40541 2.72165,-5.61291 4.10174,-11.07163 4.72626,-18.99294 0.1357,-1.72705 0.19275,-29.26272 0.19275,-56.76139 0,-27.503297 -0.0617,-54.988087 -0.19738,-56.715138 -0.63222,-8.049294 -2.01232,-13.46175 -4.82186,-19.182607 C 193.17447,19.57582 190.61473,16.07854 186.89849,12.502619 180.2663,6.1680408 172.15533,2.3130153 162.49001,0.9190381 157.80693,0.2420956 156.87401,0.0416343 132.91117,0 Z"
     id="path5280"
     style="fill:url(#d);stroke-width:1.54201019"
     inkscape:connector-curvature="0" />
  <path
     d="m 100.23597,26.214174 c -20.101641,0 -22.624369,0.08789 -30.519461,0.447183 -7.879673,0.36083 -13.258205,1.608316 -17.96442,3.438682 -4.868126,1.890505 -8.997629,4.419402 -13.111713,8.535027 -4.117167,4.114083 -6.646064,8.243586 -8.542736,13.110171 -1.834992,4.707757 -3.084021,10.08783 -3.438683,17.964419 -0.35312,7.895092 -0.445641,10.419362 -0.445641,30.521004 0,20.10165 0.08944,22.61667 0.447183,30.51176 0.362373,7.87967 1.609859,13.2582 3.438683,17.96442 1.892046,4.86812 4.420943,8.99763 8.536568,13.11171 4.112542,4.11717 8.242045,6.65223 13.107087,8.54274 4.709299,1.83036 10.089373,3.07785 17.967503,3.43868 7.895093,0.35929 10.416279,0.44718 30.51638,0.44718 20.10319,0 22.61821,-0.0879 30.5133,-0.44718 7.87967,-0.36083 13.26437,-1.60832 17.97367,-3.43868 4.86659,-1.89051 8.98992,-4.42557 13.10246,-8.54274 4.11717,-4.11408 6.64607,-8.24359 8.54274,-13.11017 1.81957,-4.70776 3.0686,-10.08783 3.43868,-17.96442 0.35466,-7.89509 0.44718,-10.41165 0.44718,-30.5133 0,-20.101642 -0.0925,-22.62437 -0.44718,-30.519462 -0.37008,-7.879673 -1.61911,-13.258204 -3.43868,-17.964419 -1.89667,-4.868127 -4.42557,-8.99763 -8.54274,-13.111713 -4.11716,-4.117167 -8.23433,-6.646064 -13.10708,-8.535027 -4.71856,-1.830366 -10.10017,-3.077852 -17.97984,-3.438682 -7.8951,-0.359289 -10.40857,-0.447183 -30.51639,-0.447183 z m -6.639892,13.338388 c 1.970689,-0.0031 4.169596,0 6.639892,0 19.76241,0 22.10472,0.07093 29.90883,0.425595 7.21661,0.32999 11.13332,1.535842 13.7424,2.548943 3.4541,1.341548 5.91669,2.945239 8.50573,5.535816 2.59058,2.590577 4.19427,5.057794 5.5389,8.511897 1.0131,2.605997 2.22049,6.522703 2.54894,13.739311 0.35466,7.802571 0.43176,10.146427 0.43176,29.899576 0,19.75315 -0.0771,22.09701 -0.43176,29.89958 -0.32999,7.21661 -1.53584,11.13331 -2.54894,13.73931 -1.34155,3.4541 -2.94832,5.91361 -5.5389,8.50264 -2.59058,2.59058 -5.05009,4.19427 -8.50573,5.53582 -2.606,1.01773 -6.52579,2.2205 -13.7424,2.55049 -7.80257,0.35466 -10.14642,0.43176 -29.90883,0.43176 -19.763941,0 -22.106254,-0.0771 -29.908825,-0.43176 -7.216608,-0.33308 -11.133314,-1.53893 -13.743938,-2.55203 -3.454103,-1.34155 -5.921319,-2.94524 -8.511896,-5.53582 -2.590577,-2.59057 -4.194268,-5.05162 -5.538901,-8.50727 -1.013101,-2.60599 -2.220495,-6.5227 -2.548943,-13.73931 -0.354662,-7.80257 -0.425594,-10.14643 -0.425594,-29.91191 0,-19.76549 0.07093,-22.097009 0.425594,-29.899581 0.329991,-7.216607 1.535842,-11.133313 2.548943,-13.742395 1.341549,-3.454102 2.948324,-5.921319 5.538901,-8.511896 2.590577,-2.590577 5.057793,-4.194268 8.511896,-5.538901 2.609081,-1.017726 6.52733,-2.220494 13.743938,-2.552027 6.828021,-0.308402 9.47411,-0.400922 23.268933,-0.416342 z m 46.149282,12.289821 c -4.90359,0 -8.88198,3.973761 -8.88198,8.878895 0,4.903592 3.97839,8.881979 8.88198,8.881979 4.90359,0 8.88198,-3.978387 8.88198,-8.881979 0,-4.903592 -3.97839,-8.881979 -8.88198,-8.881979 z m -39.50939,10.377729 c -20.99138,0 -38.010547,17.019167 -38.010547,38.010548 0,20.99139 17.019167,38.00285 38.010547,38.00285 20.99139,0 38.00439,-17.01146 38.00439,-38.00285 0,-20.991381 -17.01454,-38.010548 -38.00593,-38.010548 z m 0,13.338388 c 13.62521,0 24.67217,11.045419 24.67217,24.67216 0,13.62521 -11.04696,24.67217 -24.67217,24.67217 -13.62674,0 -24.672159,-11.04696 -24.672159,-24.67217 0,-13.626741 11.045419,-24.67216 24.672159,-24.67216 z"
     id="path5282"
     inkscape:connector-curvature="0"
     style="fill:#ffffff;stroke-width:1.54201019" />
</svg>
