<?xml version="1.0" encoding="UTF-8" standalone="no"?>
<svg
   xmlns:dc="http://purl.org/dc/elements/1.1/"
   xmlns:cc="http://creativecommons.org/ns#"
   xmlns:rdf="http://www.w3.org/1999/02/22-rdf-syntax-ns#"
   xmlns:svg="http://www.w3.org/2000/svg"
   xmlns="http://www.w3.org/2000/svg"
   xmlns:xlink="http://www.w3.org/1999/xlink"
   xmlns:sodipodi="http://sodipodi.sourceforge.net/DTD/sodipodi-0.dtd"
   xmlns:inkscape="http://www.inkscape.org/namespaces/inkscape"
   width="514.36322"
   height="514.22302"
   version="1.1"
   id="svg5284"
   sodipodi:docname="instagram-logo.svg"
   inkscape:version="0.92.3 (2405546, 2018-03-11)">
  <metadata
     id="metadata5288">
    <rdf:RDF>
      <cc:Work
         rdf:about="">
        <dc:format>image/svg+xml</dc:format>
        <dc:type
           rdf:resource="http://purl.org/dc/dcmitype/StillImage" />
      </cc:Work>
    </rdf:RDF>
  </metadata>
  <sodipodi:namedview
     pagecolor="#ffffff"
     bordercolor="#666666"
     borderopacity="1"
     objecttolerance="10"
     gridtolerance="10"
     guidetolerance="10"
     inkscape:pageopacity="0"
     inkscape:pageshadow="2"
     inkscape:window-width="1920"
     inkscape:window-height="1001"
     id="namedview5286"
     showgrid="false"
     inkscape:zoom="0.45254834"
     inkscape:cx="844.55136"
     inkscape:cy="-96.218077"
     inkscape:window-x="-9"
     inkscape:window-y="-9"
     inkscape:window-maximized="1"
     inkscape:current-layer="svg5284" />
  <defs
     id="defs5276">
    <linearGradient
       id="b">
      <stop
         offset="0"
         stop-color="#3771c8"
         id="stop5258" />
      <stop
         stop-color="#3771c8"
         offset=".128"
         id="stop5260" />
      <stop
         offset="1"
         stop-color="#60f"
         stop-opacity="0"
         id="stop5262" />
    </linearGradient>
    <linearGradient
       id="a">
      <stop
         offset="0"
         stop-color="#fd5"
         id="stop5265" />
      <stop
         offset=".1"
         stop-color="#fd5"
         id="stop5267" />
      <stop
         offset=".5"
         stop-color="#ff543e"
         id="stop5269" />
      <stop
         offset="1"
         stop-color="#c837ab"
         id="stop5271" />
    </linearGradient>
    <radialGradient
       id="c"
       cx="158.429"
       cy="578.08801"
       r="65"
       xlink:href="#a"
       gradientUnits="userSpaceOnUse"
       gradientTransform="matrix(0,-7.8405073,7.2942771,0,-4080.1057,1795.9927)"
       fx="158.429"
       fy="578.08801" />
    <radialGradient
       id="d"
       cx="147.694"
       cy="473.45499"
       r="65"
       xlink:href="#b"
       gradientUnits="userSpaceOnUse"
       gradientTransform="matrix(0.68808858,3.4365662,-14.169229,2.8370897,6520.7072,-1813.7508)"
       fx="147.694"
       fy="473.45499" />
  </defs>
  <path
     d="M 257.26558,0 C 149.89463,0 118.49273,0.11077 112.38878,0.61712 90.35444,2.4487 76.6433,5.91803 61.70584,13.35511 50.19418,19.07138 41.1154,25.69751 32.1553,34.98595 15.83722,51.9251 5.94748,72.76476 2.3674,97.53658 c -1.7406,12.02593 -2.24695,14.47858 -2.3498,75.90574 -0.0396,20.47572 0,47.42328 0,83.5683 0,107.28392 0.11867,138.65417 0.63294,144.74624 1.78015,21.44097 5.14267,34.93056 12.26328,49.68606 13.60828,28.24511 39.59852,49.44871 70.21715,57.3605 10.60181,2.72957 22.31126,4.2328 37.34367,4.94486 6.36899,0.27691 71.28525,0.47473 136.24107,0.47473 64.9558,0 129.91162,-0.079 136.12239,-0.39561 17.40593,-0.81886 27.51325,-2.17573 38.68866,-5.06354 30.81644,-7.95135 56.33195,-28.83847 70.21716,-57.47918 6.98216,-14.39944 10.52266,-28.40332 12.12482,-48.72477 0.34812,-4.4306 0.49448,-75.07103 0.49448,-145.61653 0,-70.55737 -0.15829,-141.06726 -0.50636,-145.49787 C 512.23495,90.79573 508.69442,76.91054 501.48679,62.23417 495.57271,50.22011 489.00591,41.24813 479.47222,32.07441 462.4579,15.82359 441.64989,5.93385 416.85433,2.35772 404.84029,0.62108 402.44696,0.10681 340.97233,0 Z"
     id="path5278"
     style="fill:url(#c);stroke-width:3.95589614"
     inkscape:connector-curvature="0" />
  <path
     d="M 257.26558,0 C 149.89463,0 118.49273,0.11077 112.38878,0.61712 90.35444,2.4487 76.6433,5.91803 61.70584,13.35511 50.19418,19.07138 41.1154,25.69751 32.1553,34.98595 15.83722,51.9251 5.94748,72.76476 2.3674,97.53658 c -1.7406,12.02593 -2.24695,14.47858 -2.3498,75.90574 -0.0396,20.47572 0,47.42328 0,83.5683 0,107.28392 0.11867,138.65417 0.63294,144.74624 1.78015,21.44097 5.14267,34.93056 12.26328,49.68606 13.60828,28.24511 39.59852,49.44871 70.21715,57.3605 10.60181,2.72957 22.31126,4.2328 37.34367,4.94486 6.36899,0.27691 71.28525,0.47473 136.24107,0.47473 64.9558,0 129.91162,-0.079 136.12239,-0.39561 17.40593,-0.81886 27.51325,-2.17573 38.68866,-5.06354 30.81644,-7.95135 56.33195,-28.83847 70.21716,-57.47918 6.98216,-14.39944 10.52266,-28.40332 12.12482,-48.72477 0.34812,-4.4306 0.49448,-75.07103 0.49448,-145.61653 0,-70.55737 -0.15829,-141.06726 -0.50636,-145.49787 C 512.23495,90.79573 508.69442,76.91054 501.48679,62.23417 495.57271,50.22011 489.00591,41.24813 479.47222,32.07441 462.4579,15.82359 441.64989,5.93385 416.85433,2.35772 404.84029,0.62108 402.44696,0.10681 340.97233,0 Z"
     id="path5280"
     style="fill:url(#d);stroke-width:3.95589614"
     inkscape:connector-curvature="0" />
  <path
     d="m 257.14688,67.25024 c -51.56905,0 -58.0409,0.22548 -78.29508,1.14721 -20.21463,0.92568 -34.0128,4.126 -46.0862,8.82165 -12.48876,4.84993 -23.08265,11.3376 -33.63698,21.89589 -10.56224,10.55433 -17.04992,21.14821 -21.91567,33.63303 -4.70751,12.07735 -7.91179,25.87947 -8.82165,46.08619 -0.90589,20.25418 -1.14325,26.72998 -1.14325,78.29904 0,51.56907 0.22945,58.02115 1.14721,78.27533 0.92964,20.21462 4.12996,34.01278 8.82165,46.08619 4.85388,12.48875 11.34155,23.08266 21.89984,33.63698 10.55038,10.56225 21.14427,17.06573 33.62512,21.91567 12.0813,4.69564 25.88343,7.89597 46.0941,8.82165 20.25419,0.92172 26.72208,1.1472 78.28718,1.1472 51.57303,0 58.0251,-0.2255 78.27928,-1.1472 20.21463,-0.92568 34.02862,-4.12601 46.10993,-8.82165 12.48482,-4.84994 23.06287,-11.35342 33.61324,-21.91567 10.56225,-10.55432 17.04993,-21.14823 21.91568,-33.63303 4.66795,-12.07736 7.87223,-25.87947 8.82164,-46.08619 0.90985,-20.25418 1.1472,-26.71021 1.1472,-78.27928 0,-51.56906 -0.2373,-58.0409 -1.1472,-78.29509 -0.94941,-20.21463 -4.15369,-34.01279 -8.82164,-46.08619 C 432.17553,120.2632 425.68785,109.66932 415.1256,99.11499 404.56338,88.55274 394.00113,82.06507 381.5005,77.2191 369.39544,72.52345 355.58937,69.32313 335.37475,68.39745 315.12054,67.47573 308.67245,67.25024 257.08754,67.25024 Z m -17.03408,34.2185 c 5.05564,-0.008 10.69675,0 17.03408,0 50.69879,0 56.70778,0.18197 76.72856,1.09183 18.5136,0.84656 28.56159,3.94007 35.25496,6.5391 8.8612,3.44163 15.17877,7.55576 21.82073,14.20166 6.64591,6.64591 10.76005,12.97534 14.20958,21.83655 2.59902,6.68547 5.69648,16.73344 6.53909,35.24704 0.90985,20.01683 1.10764,26.02979 1.10764,76.70482 0,50.67503 -0.19779,56.688 -1.10764,76.70483 -0.84656,18.5136 -3.94007,28.56156 -6.53909,35.24703 -3.44163,8.86121 -7.56367,15.17087 -14.20958,21.81281 -6.64591,6.64591 -12.95558,10.76004 -21.82073,14.20167 -6.68547,2.6109 -16.74136,5.69651 -35.25496,6.54307 -20.01683,0.90985 -26.02977,1.10764 -76.72856,1.10764 -50.70271,0 -56.71172,-0.19779 -76.72855,-1.10764 -18.51359,-0.85449 -28.56157,-3.948 -35.2589,-6.54702 -8.86121,-3.44163 -15.19064,-7.55576 -21.83655,-14.20168 -6.64591,-6.64588 -10.76004,-12.9595 -14.20958,-21.82467 -2.59902,-6.68545 -5.69649,-16.73344 -6.5391,-35.24704 -0.90985,-20.01683 -1.09182,-26.0298 -1.09182,-76.73646 0,-50.70669 0.18196,-56.688 1.09182,-76.70484 0.84657,-18.51359 3.94008,-28.56156 6.5391,-35.25494 3.44163,-8.86121 7.56367,-15.19064 14.20958,-21.83655 6.64591,-6.6459 12.97534,-10.76004 21.83655,-14.20958 6.69337,-2.61089 16.74531,-5.69649 35.2589,-6.54701 17.51671,-0.79118 24.30503,-1.02853 59.69447,-1.06809 z m 118.39207,31.52849 c -12.57975,0 -22.78597,10.19435 -22.78597,22.77806 0,12.57974 10.20622,22.78596 22.78597,22.78596 12.57974,0 22.78596,-10.20622 22.78596,-22.78596 0,-12.57975 -10.20622,-22.78597 -22.78596,-22.78597 z m -101.35799,26.62319 c -53.8516,0 -97.51283,43.66122 -97.51283,97.51283 0,53.85163 43.66123,97.49308 97.51283,97.49308 53.85163,0 97.49704,-43.64145 97.49704,-97.49308 0,-53.85161 -43.64936,-97.51283 -97.50099,-97.51283 z m 0,34.2185 c 34.95432,0 63.29436,28.33608 63.29436,63.29433 0,34.95432 -28.34004,63.29436 -63.29436,63.29436 -34.95824,0 -63.29433,-28.34004 -63.29433,-63.29436 0,-34.95825 28.33609,-63.29433 63.29433,-63.29433 z"
     id="path5282"
     inkscape:connector-curvature="0"
     style="fill:#ffffff;stroke-width:3.95589614" />
</svg>
