<?xml version="1.0" encoding="UTF-8" standalone="no"?>
<!-- Created with Inkscape (http://www.inkscape.org/) -->

<svg
   xmlns:dc="http://purl.org/dc/elements/1.1/"
   xmlns:cc="http://creativecommons.org/ns#"
   xmlns:rdf="http://www.w3.org/1999/02/22-rdf-syntax-ns#"
   xmlns:svg="http://www.w3.org/2000/svg"
   xmlns="http://www.w3.org/2000/svg"
   xmlns:xlink="http://www.w3.org/1999/xlink"
   xmlns:sodipodi="http://sodipodi.sourceforge.net/DTD/sodipodi-0.dtd"
   xmlns:inkscape="http://www.inkscape.org/namespaces/inkscape"
   width="210.15475mm"
   height="210.15475mm"
   viewBox="0 0 210.15475 210.15475"
   version="1.1"
   id="svg5839"
   inkscape:version="0.92.3 (2405546, 2018-03-11)"
   sodipodi:docname="social-media-mashup.svg">
  <defs
     id="defs5833">
    <radialGradient
       id="c"
       cx="158.429"
       cy="578.08801"
       r="65"
       xlink:href="#a"
       gradientUnits="userSpaceOnUse"
       gradientTransform="matrix(0,-0.96204586,0.89477818,0,-357.44548,366.02888)"
       fx="158.429"
       fy="578.08801" />
    <linearGradient
       id="a">
      <stop
         offset="0"
         stop-color="#fd5"
         id="stop5265" />
      <stop
         offset=".1"
         stop-color="#fd5"
         id="stop5267" />
      <stop
         offset=".5"
         stop-color="#ff543e"
         id="stop5269" />
      <stop
         offset="1"
         stop-color="#c837ab"
         id="stop5271" />
    </linearGradient>
    <radialGradient
       id="d"
       cx="147.694"
       cy="473.45499"
       r="65"
       xlink:href="#b"
       gradientUnits="userSpaceOnUse"
       gradientTransform="matrix(0.0844068,0.42167352,-1.7381184,0.34811656,942.94053,-76.89374)"
       fx="147.694"
       fy="473.45499" />
    <linearGradient
       id="b">
      <stop
         offset="0"
         stop-color="#3771c8"
         id="stop5258" />
      <stop
         stop-color="#3771c8"
         offset=".128"
         id="stop5260" />
      <stop
         offset="1"
         stop-color="#60f"
         stop-opacity="0"
         id="stop5262" />
    </linearGradient>
    <clipPath
       clipPathUnits="userSpaceOnUse"
       id="clipPath5222">
      <rect
         style="opacity:0.67400004;fill:#efc7c2;fill-opacity:1;stroke-width:0.47571367"
         id="rect5224"
         width="74.924904"
         height="75.264694"
         x="239.27811"
         y="-100.31301"
         transform="scale(1,-1)" />
    </clipPath>
  </defs>
  <sodipodi:namedview
     id="base"
     pagecolor="#ffffff"
     bordercolor="#666666"
     borderopacity="1.0"
     inkscape:pageopacity="0.0"
     inkscape:pageshadow="2"
     inkscape:zoom="0.70710678"
     inkscape:cx="53.185757"
     inkscape:cy="390.33183"
     inkscape:document-units="mm"
     inkscape:current-layer="layer1"
     showgrid="false"
     inkscape:window-width="1920"
     inkscape:window-height="1001"
     inkscape:window-x="-9"
     inkscape:window-y="-9"
     inkscape:window-maximized="1" />
  <metadata
     id="metadata5836">
    <rdf:RDF>
      <cc:Work
         rdf:about="">
        <dc:format>image/svg+xml</dc:format>
        <dc:type
           rdf:resource="http://purl.org/dc/dcmitype/StillImage" />
        <dc:title></dc:title>
      </cc:Work>
    </rdf:RDF>
  </metadata>
  <g
     inkscape:groupmode="layer"
     id="layer2"
     inkscape:label="Background">
    <rect
       style="opacity:0.67400004;fill:#efc7c2;fill-opacity:1;stroke-width:0.26458332"
       id="rect9018"
       width="214.7778"
       height="215.15196"
       x="-0.74075687"
       y="8.8720293"
       transform="translate(-0.75595242,-11.249997)" />
  </g>
  <g
     inkscape:label="Layer 1"
     inkscape:groupmode="layer"
     id="layer1"
     transform="translate(-0.75595242,-11.249997)">
    <path
       d="m 174.61343,145.65701 c -13.17104,0 -17.02306,0.0136 -17.77182,0.0757 -2.70292,0.22474 -4.38485,0.65044 -6.2172,1.56299 -1.41212,0.70138 -2.5258,1.51443 -3.62493,2.65414 -2.00171,2.07846 -3.21487,4.63553 -3.65404,7.67508 -0.21351,1.47561 -0.27563,1.77656 -0.28824,9.31379 -0.005,2.51242 0,5.81893 0,10.25399 0,13.16396 0.0145,17.01314 0.0776,17.76066 0.21838,2.63084 0.63085,4.28605 1.50433,6.09658 1.6693,3.46573 4.85749,6.06745 8.61343,7.03824 1.30051,0.33493 2.73689,0.51938 4.58089,0.60674 0.78127,0.0339 8.74447,0.0583 16.71249,0.0583 7.96804,0 15.93607,-0.0101 16.69794,-0.0486 2.13515,-0.10045 3.375,-0.26696 4.74588,-0.62131 3.78021,-0.97564 6.91016,-3.53853 8.61343,-7.0528 0.85649,-1.76685 1.29081,-3.48514 1.48734,-5.97863 0.0427,-0.54364 0.0607,-9.21136 0.0607,-17.86744 0,-8.65753 -0.0194,-17.30923 -0.0621,-17.85288 -0.19897,-2.53376 -0.63327,-4.2375 -1.51743,-6.03833 -0.72546,-1.47414 -1.53101,-2.57502 -2.70049,-3.70065 -2.08712,-1.99402 -4.63961,-3.20751 -7.68125,-3.64631 -1.47374,-0.21308 -1.76733,-0.27618 -9.30833,-0.28929 z"
       id="path5278"
       style="fill:url(#c);stroke-width:0.48533013"
       inkscape:connector-curvature="0" />
    <path
       d="m 174.61343,145.65701 c -13.17104,0 -17.02306,0.0136 -17.77182,0.0757 -2.70292,0.22474 -4.38485,0.65044 -6.2172,1.56299 -1.41212,0.70138 -2.5258,1.51443 -3.62493,2.65414 -2.00171,2.07846 -3.21487,4.63553 -3.65404,7.67508 -0.21351,1.47561 -0.27563,1.77656 -0.28824,9.31379 -0.005,2.51242 0,5.81893 0,10.25399 0,13.16396 0.0145,17.01314 0.0776,17.76066 0.21838,2.63084 0.63085,4.28605 1.50433,6.09658 1.6693,3.46573 4.85749,6.06745 8.61343,7.03824 1.30051,0.33493 2.73689,0.51938 4.58089,0.60674 0.78127,0.0339 8.74447,0.0583 16.71249,0.0583 7.96804,0 15.93607,-0.0101 16.69794,-0.0486 2.13515,-0.10045 3.375,-0.26696 4.74588,-0.62131 3.78021,-0.97564 6.91016,-3.53853 8.61343,-7.0528 0.85649,-1.76685 1.29081,-3.48514 1.48734,-5.97863 0.0427,-0.54364 0.0607,-9.21136 0.0607,-17.86744 0,-8.65753 -0.0194,-17.30923 -0.0621,-17.85288 -0.19897,-2.53376 -0.63327,-4.2375 -1.51743,-6.03833 -0.72546,-1.47414 -1.53101,-2.57502 -2.70049,-3.70065 -2.08712,-1.99402 -4.63961,-3.20751 -7.68125,-3.64631 -1.47374,-0.21308 -1.76733,-0.27618 -9.30833,-0.28929 z"
       id="path5280"
       style="fill:url(#d);stroke-width:0.48533013"
       inkscape:connector-curvature="0" />
    <path
       d="m 174.59887,153.90874 c -6.3259,0 -7.11979,0.0276 -9.60434,0.14077 -2.47971,0.11357 -4.1723,0.50627 -5.65333,1.08244 -1.53198,0.5951 -2.83152,1.39114 -4.1262,2.68666 -1.29566,1.29504 -2.09149,2.59493 -2.68835,4.12684 -0.57747,1.48192 -0.97054,3.17547 -1.08214,5.65487 -0.11118,2.48524 -0.14025,3.27982 -0.14025,9.60745 0,6.32762 0.0281,7.11932 0.14073,9.60454 0.11408,2.48037 0.50661,4.17343 1.08214,5.65487 0.59541,1.53239 1.39125,2.83228 2.68642,4.12732 1.2942,1.29601 2.59373,2.094 4.12475,2.6891 1.48199,0.57616 3.17507,0.96885 5.65429,1.08244 2.48455,0.11306 3.27796,0.14075 9.60337,0.14075 6.32638,0 7.11785,-0.0276 9.6024,-0.14075 2.4797,-0.11358 4.17424,-0.50628 5.65624,-1.08244 1.53149,-0.5951 2.82909,-1.39309 4.12329,-2.6891 1.29565,-1.29504 2.09149,-2.59493 2.68836,-4.12685 0.57261,-1.48191 0.96568,-3.17545 1.08214,-5.65485 0.11156,-2.48523 0.14072,-3.27741 0.14072,-9.60503 0,-6.32763 -0.0291,-7.12173 -0.14072,-9.60697 -0.11647,-2.48037 -0.50953,-4.17343 -1.08214,-5.65487 -0.59687,-1.53239 -1.39271,-2.83228 -2.68836,-4.12732 -1.29566,-1.29601 -2.59131,-2.09206 -4.12475,-2.68666 -1.48491,-0.57617 -3.17847,-0.96886 -5.65818,-1.08244 -2.48455,-0.11307 -3.27552,-0.14077 -9.60337,-0.14077 z m -2.08955,4.19869 c 0.62018,-9.9e-4 1.31216,0 2.08955,0 6.21915,0 6.95626,0.0223 9.41218,0.13396 2.27104,0.10386 3.50361,0.48346 4.32468,0.80236 1.08698,0.4223 1.86195,0.92711 2.67671,1.74258 0.81525,0.81546 1.31991,1.5921 1.74306,2.67939 0.31883,0.82031 0.69878,2.05322 0.80214,4.32488 0.11156,2.4561 0.13588,3.1939 0.13588,9.41183 0,6.21793 -0.0242,6.95573 -0.13588,9.41184 -0.10385,2.27165 -0.48331,3.50455 -0.80214,4.32488 -0.42217,1.08729 -0.92781,1.86149 -1.74306,2.67648 -0.81525,0.81546 -1.58924,1.32027 -2.67671,1.74256 -0.8201,0.32037 -2.05364,0.69898 -4.32468,0.80285 -2.45544,0.11168 -3.19303,0.13591 -9.41218,0.13591 -6.21962,0 -6.95674,-0.0242 -9.41218,-0.13591 -2.27103,-0.10487 -3.5036,-0.48443 -4.32515,-0.80333 -1.087,-0.4223 -1.86342,-0.92711 -2.67866,-1.74258 -0.81524,-0.81546 -1.31992,-1.59015 -1.74307,-2.67792 -0.31881,-0.82032 -0.69878,-2.05323 -0.80214,-4.32488 -0.11156,-2.45611 -0.13393,-3.19392 -0.13393,-9.41572 0,-6.22181 0.0223,-6.95574 0.13393,-9.41184 0.10385,-2.27166 0.48333,-3.50456 0.80214,-4.32585 0.42218,-1.08729 0.92783,-1.86393 1.74307,-2.67938 0.81524,-0.81547 1.59166,-1.32029 2.67866,-1.74355 0.82106,-0.32037 2.05412,-0.69897 4.32515,-0.80333 2.14875,-0.097 2.98146,-0.12621 7.32263,-0.13106 z m 14.52298,3.8686 c -1.54313,0 -2.79511,1.25087 -2.79511,2.79491 0,1.54357 1.25198,2.79589 2.79511,2.79589 1.54314,0 2.79512,-1.25232 2.79512,-2.79589 0,-1.54356 -1.25198,-2.79588 -2.79512,-2.79588 z m -12.43343,3.26672 c -6.6059,0 -11.96175,5.35732 -11.96175,11.96502 0,6.60771 5.35585,11.96259 11.96175,11.96259 6.6059,0 11.95982,-5.35488 11.95982,-11.96259 0,-6.6077 -5.35441,-11.96502 -11.9603,-11.96502 z m 0,4.19868 c 4.2878,0 7.76422,3.47689 7.76422,7.76634 0,4.28896 -3.47642,7.76634 -7.76422,7.76634 -4.28827,0 -7.76422,-3.47738 -7.76422,-7.76634 0,-4.28945 3.47595,-7.76634 7.76422,-7.76634 z"
       id="path5282"
       inkscape:connector-curvature="0"
       style="fill:#ffffff;stroke-width:0.48533013" />
    <g
       transform="matrix(0.90818785,0,0,-0.9041044,-213.37706,241.88039)"
       id="g3019"
       clip-path="url(#clipPath5222)">
      <path
         d="m 239.3298,95.036 c 0,2.96 2.4604,5.361 5.4956,5.361 h 63.376 c 3.0351,0 5.4956,-2.401 5.4956,-5.361 V 30.919 c 0,-2.961 -2.4605,-5.361 -5.4956,-5.361 h -63.376 c -3.0352,0 -5.4956,2.4 -5.4956,5.361 z"
         style="fill:#006699;fill-opacity:1;fill-rule:nonzero;stroke:none"
         id="path14"
         inkscape:connector-curvature="0" />
      <path
         d="M 31.1516,37.709 H 62.1872 V 47.898 H 42.383 V 86.772 H 31.1516 Z"
         style="fill:#000000;fill-opacity:1;fill-rule:evenodd;stroke:none"
         id="path16"
         inkscape:connector-curvature="0" />
      <path
         d="M 77.9001,37.709 V 71.502 H 66.6677 V 37.709 Z m -5.6162,38.407 c 3.917,0 6.355,2.595 6.355,5.84 -0.073,3.315 -2.438,5.837 -6.2803,5.837 -3.8428,0 -6.355,-2.522 -6.355,-5.837 0,-3.245 2.4375,-5.84 6.207,-5.84 h 0.073 z"
         style="fill:#000000;fill-opacity:1;fill-rule:evenodd;stroke:none"
         id="path18"
         inkscape:connector-curvature="0" />
      <path
         d="m 83.1154,37.709 h 11.2325 v 18.872 c 0,1.01 0.073,2.019 0.3701,2.741 0.8115,2.017 2.6596,4.107 5.7627,4.107 4.0649,0 5.6909,-3.1 5.6909,-7.64 v -18.08 h 11.2314 v 19.377 c 0,10.38 -5.542,15.21 -12.9321,15.21 -6.0591,0 -8.7197,-3.387 -10.1978,-5.694 h 0.075 v 4.9 H 83.1156 c 0.1475,-3.171 0,-33.793 0,-33.793 z"
         style="fill:#000000;fill-opacity:1;fill-rule:evenodd;stroke:none"
         id="path20"
         inkscape:connector-curvature="0" />
      <path
         d="M 133.2487,86.772 H 122.0158 V 37.709 h 11.2329 v 10.956 l 2.8072,3.534 8.7939,-14.49 h 13.8179 l -14.7783,20.977 12.9316,14.272 h -13.5225 c 0,0 -9.2368,-12.769 -10.0498,-14.283 z"
         style="fill:#000000;fill-opacity:1;fill-rule:evenodd;stroke:none"
         id="path22"
         inkscape:connector-curvature="0" />
      <path
         d="m 188.7062,51.805 c 0.1475,0.868 0.3697,2.533 0.3697,4.415 0,8.736 -4.4346,17.604 -16.1094,17.604 -12.4888,0 -18.2524,-9.877 -18.2524,-18.835 0,-11.08 7.02,-18 19.2866,-18 4.8774,0 9.3843,0.72 13.0796,2.234 l -1.4785,7.418 c -3.0293,-1.005 -6.1329,-1.507 -9.9751,-1.507 -5.2466,0 -9.8277,2.153 -10.1978,6.743 l 23.2773,-0.07 z m -23.3505,7.599 c 0.2954,2.884 2.2168,7.138 7.02,7.138 5.0976,0 6.2807,-4.543 6.2807,-7.138 z"
         style="fill:#000000;fill-opacity:1;fill-rule:evenodd;stroke:none"
         id="path24"
         inkscape:connector-curvature="0" />
      <path
         d="M 216.801,86.772 V 69.788 h -0.1475 c -1.626,2.377 -5.0259,3.963 -9.5322,3.963 -8.6465,0 -16.2573,-6.92 -16.1841,-18.741 0,-10.958 6.8726,-18.094 15.4443,-18.094 4.6553,0 9.0889,2.019 11.3057,5.912 h 0.2222 l 0.4433,-5.119 h 9.9766 c -0.148,2.379 -0.2969,6.488 -0.2969,10.524 v 38.539 z m 0,-33.421 c 0,-0.864 -0.074,-1.73 -0.2222,-2.45 -0.6641,-3.1 -3.3252,-5.262 -6.5757,-5.262 -4.6557,0 -7.6855,3.748 -7.6855,9.659 0,5.55 2.5869,10.019 7.7588,10.019 3.4726,0 5.9116,-2.378 6.5771,-5.333 0.1475,-0.65 0.1475,-1.371 0.1475,-2.019 z"
         style="fill:#000000;fill-opacity:1;fill-rule:evenodd;stroke:none"
         id="path26"
         inkscape:connector-curvature="0" />
      <path
         d="M 261.8728,37.749 V 71.543 H 250.6403 V 37.749 Z m -5.6163,38.408 c 3.917,0 6.355,2.595 6.355,5.838 -0.073,3.316 -2.438,5.839 -6.2807,5.839 -3.8423,0 -6.3545,-2.523 -6.3545,-5.839 0,-3.243 2.4375,-5.838 6.207,-5.838 h 0.073 z"
         style="fill:#ffffff;fill-opacity:1;fill-rule:evenodd;stroke:none"
         id="path28"
         inkscape:connector-curvature="0" />
      <path
         d="m 268.0881,37.749 h 11.2324 v 18.872 c 0,1.01 0.073,2.019 0.3696,2.741 0.812,2.018 2.6602,4.108 5.7632,4.108 4.0645,0 5.6904,-3.099 5.6904,-7.642 V 37.749 h 11.2315 v 19.377 c 0,10.38 -5.5415,15.21 -12.9316,15.21 -6.0596,0 -8.7198,-3.387 -10.1978,-5.694 h 0.075 v 4.901 h -11.2324 c 0.1474,-3.171 0,-33.794 0,-33.794 z"
         style="fill:#ffffff;fill-opacity:1;fill-rule:evenodd;stroke:none"
         id="path30"
         inkscape:connector-curvature="0" />
    </g>
    <g
       transform="matrix(0.17800482,0,0,0.18246828,11.355671,18.337193)"
       id="g7133">
      <path
         inkscape:connector-curvature="0"
         d="M 409.132,114.573 C 389.524,80.977 362.927,54.379 329.334,34.773 295.736,15.166 259.057,5.365 219.271,5.365 c -39.781,0 -76.472,9.804 -110.063,29.408 -33.596,19.605 -60.192,46.204 -79.8,79.8 C 9.803,148.168 0,184.854 0,224.63 c 0,47.78 13.94,90.745 41.827,128.906 27.884,38.164 63.906,64.572 108.063,79.227 5.14,0.954 8.945,0.283 11.419,-1.996 2.475,-2.282 3.711,-5.14 3.711,-8.562 0,-0.571 -0.049,-5.708 -0.144,-15.417 -0.098,-9.709 -0.144,-18.179 -0.144,-25.406 l -6.567,1.136 c -4.187,0.767 -9.469,1.092 -15.846,1 -6.374,-0.089 -12.991,-0.757 -19.842,-1.999 -6.854,-1.231 -13.229,-4.086 -19.13,-8.559 -5.898,-4.473 -10.085,-10.328 -12.56,-17.556 l -2.855,-6.57 c -1.903,-4.374 -4.899,-9.233 -8.992,-14.559 -4.093,-5.331 -8.232,-8.945 -12.419,-10.848 l -1.999,-1.431 c -1.332,-0.951 -2.568,-2.098 -3.711,-3.429 -1.142,-1.331 -1.997,-2.663 -2.568,-3.997 -0.572,-1.335 -0.098,-2.43 1.427,-3.289 1.525,-0.859 4.281,-1.276 8.28,-1.276 l 5.708,0.853 c 3.807,0.763 8.516,3.042 14.133,6.851 5.614,3.806 10.229,8.754 13.846,14.842 4.38,7.806 9.657,13.754 15.846,17.847 6.184,4.093 12.419,6.136 18.699,6.136 6.28,0 11.704,-0.476 16.274,-1.423 4.565,-0.952 8.848,-2.383 12.847,-4.285 1.713,-12.758 6.377,-22.559 13.988,-29.41 -10.848,-1.14 -20.601,-2.857 -29.264,-5.14 -8.658,-2.286 -17.605,-5.996 -26.835,-11.14 -9.235,-5.137 -16.896,-11.516 -22.985,-19.126 -6.09,-7.614 -11.088,-17.61 -14.987,-29.979 -3.901,-12.374 -5.852,-26.648 -5.852,-42.826 0,-23.035 7.52,-42.637 22.557,-58.817 -7.044,-17.318 -6.379,-36.732 1.997,-58.24 5.52,-1.715 13.706,-0.428 24.554,3.853 10.85,4.283 18.794,7.952 23.84,10.994 5.046,3.041 9.089,5.618 12.135,7.708 17.705,-4.947 35.976,-7.421 54.818,-7.421 18.842,0 37.117,2.474 54.823,7.421 l 10.849,-6.849 c 7.419,-4.57 16.18,-8.758 26.262,-12.565 10.088,-3.805 17.802,-4.853 23.134,-3.138 8.562,21.509 9.325,40.922 2.279,58.24 15.036,16.18 22.559,35.787 22.559,58.817 0,16.178 -1.958,30.497 -5.853,42.966 -3.9,12.471 -8.941,22.457 -15.125,29.979 -6.191,7.521 -13.901,13.85 -23.131,18.986 -9.232,5.14 -18.182,8.85 -26.84,11.136 -8.662,2.286 -18.415,4.004 -29.263,5.146 9.894,8.562 14.842,22.077 14.842,40.539 v 60.237 c 0,3.422 1.19,6.279 3.572,8.562 2.379,2.279 6.136,2.95 11.276,1.995 44.163,-14.653 80.185,-41.062 108.068,-79.226 27.88,-38.161 41.825,-81.126 41.825,-128.906 -0.01,-39.771 -9.818,-76.454 -29.414,-110.049 z"
         id="path7131" />
    </g>
    <g
       transform="matrix(0.11401313,0,0,0.116872,-84.987794,156.19513)"
       id="g7135" />
    <g
       transform="matrix(0.11401313,0,0,0.116872,-84.987794,156.19513)"
       id="g7137" />
    <g
       transform="matrix(0.11401313,0,0,0.116872,-84.987794,156.19513)"
       id="g7139" />
    <g
       transform="matrix(0.11401313,0,0,0.116872,-84.987794,156.19513)"
       id="g7141" />
    <g
       transform="matrix(0.11401313,0,0,0.116872,-84.987794,156.19513)"
       id="g7143" />
    <g
       transform="matrix(0.11401313,0,0,0.116872,-84.987794,156.19513)"
       id="g7145" />
    <g
       transform="matrix(0.11401313,0,0,0.116872,-84.987794,156.19513)"
       id="g7147" />
    <g
       transform="matrix(0.11401313,0,0,0.116872,-84.987794,156.19513)"
       id="g7149" />
    <g
       transform="matrix(0.11401313,0,0,0.116872,-84.987794,156.19513)"
       id="g7151" />
    <g
       transform="matrix(0.11401313,0,0,0.116872,-84.987794,156.19513)"
       id="g7153" />
    <g
       transform="matrix(0.11401313,0,0,0.116872,-84.987794,156.19513)"
       id="g7155" />
    <g
       transform="matrix(0.11401313,0,0,0.116872,-84.987794,156.19513)"
       id="g7157" />
    <g
       transform="matrix(0.11401313,0,0,0.116872,-84.987794,156.19513)"
       id="g7159" />
    <g
       transform="matrix(0.11401313,0,0,0.116872,-84.987794,156.19513)"
       id="g7161" />
    <g
       transform="matrix(0.11401313,0,0,0.116872,-84.987794,156.19513)"
       id="g7163" />
    <g
       style="fill:none;fill-rule:evenodd;stroke:none;stroke-width:1"
       id="Page-1"
       transform="matrix(0.3600286,0,0,0.3600286,112.31491,67.931625)">
      <g
         style="fill-rule:nonzero"
         id="Monogram">
        <rect
           style="fill:#12100e"
           id="Rectangle-path"
           x="0"
           y="0"
           width="195"
           height="195" />
        <path
           style="fill:#ffffff"
           inkscape:connector-curvature="0"
           d="M 46.53408,65.215755 C 46.696838,63.607657 46.0836,62.018231 44.88282,60.93592 L 32.65126,46.201058 V 44 H 70.630252 L 99.985994,108.38095 125.79458,44 H 162 v 2.201058 l -10.45798,10.027043 c -0.9016,0.687247 -1.34883,1.816785 -1.162,2.934744 v 73.674305 c -0.18683,1.11796 0.2604,2.2475 1.162,2.93475 l 10.21335,10.02704 V 148 h -51.37255 v -2.20106 l 10.5803,-10.2716 c 1.03968,-1.03939 1.03968,-1.34509 1.03968,-2.93475 V 73.04174 l -29.416899,74.7137 H 88.610644 L 54.362278,73.04174 v 50.07407 c -0.28555,2.10526 0.413642,4.22479 1.895892,5.74721 l 13.760504,16.69136 v 2.20106 H 31 v -2.20106 l 13.760504,-16.69136 c 1.471458,-1.52494 2.12988,-3.65853 1.773576,-5.74721 z"
           id="Shape" />
      </g>
    </g>
    <path
       inkscape:connector-curvature="0"
       class="cls-1"
       d="m 201.45525,17.370176 h -44.48047 a 2.7597658,2.7597658 0 0 0 -2.75976,2.75977 v 44.48047 a 2.7597658,2.7597658 0 0 0 2.75976,2.75976 h 23.94923 v -19.33593 h -6.49415 v -7.56836 h 6.49415 v -5.56641 c 0,-6.45801 3.94433,-9.97461 9.70507,-9.97461 2.75879,0 5.13086,0.20508 5.82227,0.29297 v 6.74902 h -3.97266 c -3.13476,0 -3.74218,1.48926 -3.74218,3.67579 v 4.82324 h 7.49414 l -0.97657,7.56836 h -6.51757 v 19.33593 h 12.71874 a 2.7597658,2.7597658 0 0 0 2.75977,-2.75976 v -44.48047 a 2.7597658,2.7597658 0 0 0 -2.75977,-2.75977 z"
       id="path6506-5"
       style="fill:#4267b2;fill-opacity:1;stroke-width:0.09765625" />
    <path
       inkscape:connector-curvature="0"
       id="f-8"
       class="cls-2"
       d="m 139.3451,63.254225 v -19.33593 h 6.51855 l 0.97656,-7.56836 h -7.49511 v -4.82031 c 0,-2.18653 0.60742,-3.67579 3.74218,-3.67579 h 3.97266 v -6.75097 c -0.69141,-0.0918 -3.06348,-0.29297 -5.82227,-0.29297 -5.76172,0 -9.70507,3.51562 -9.70507,9.97461 v 5.5664 h -6.49415 v 7.56739 h 6.49415 v 19.33593 z"
       style="fill:#ffffff;fill-opacity:0;stroke-width:0.09765625" />
    <path
       inkscape:connector-curvature="0"
       class="st0"
       d="m 95.672209,161.2591 v -20.32251 h 6.744961 v 27.06747 H 41.537256 v -27.06747 h 6.744963 v 20.32251 z"
       id="path8393"
       style="fill:#bcbbbb;fill-opacity:1;stroke-width:0.87597007" />
    <path
       inkscape:connector-curvature="0"
       class="st1"
       d="m 55.727972,139.00946 33.111663,6.92016 1.401541,-6.65738 -33.111664,-6.92015 z m 4.379828,-15.76747 30.658957,14.27832 2.803126,-6.1318 -30.65896,-14.3659 z m 8.496909,-15.06669 26.016338,21.63647 4.292215,-5.16822 -26.016291,-21.63647 z m 16.818639,-16.030246 -5.431035,4.029462 20.147327,27.155074 5.43102,-4.02947 z M 55.027184,154.42653 h 33.812451 v -6.74498 H 55.027184 Z"
       id="path8395"
       style="fill:#f48023;fill-opacity:1;stroke-width:0.87597007" />
  </g>
  <g
     inkscape:groupmode="layer"
     id="layer3"
     inkscape:label="Layer 2" />
</svg>
