<svg xmlns="http://www.w3.org/2000/svg" xmlns:xlink="http://www.w3.org/1999/xlink" xmlns:fi="http://pattern.flaticon.com/" x="0" y="0" width="700" height="350" viewBox="0 0 700 350"><rect x="0px" y="0px" width="100%" height="100%" opacity="1" fill="#ffffff"/><defs><g transform="matrix(0.1171875 0 0 0.1171875 136 72)" id="L1_9"><path d="M24,248H8c-4.422,0-8,3.578-8,8s3.578,8,8,8h16c4.422,0,8-3.578,8-8S28.422,248,24,248z" fill="#ffffd8"/><path d="M456,248H304c-0.226,0-0.449,0.015-0.67,0.034c-0.157-0.938-0.343-1.866-0.554-2.786   c-1.212-5.294-3.295-10.254-6.098-14.72c-0.504-0.803-1.033-1.589-1.582-2.359c-3.104-4.352-6.913-8.161-11.265-11.265   c-0.775-0.553-1.566-1.084-2.374-1.591c-4.462-2.798-9.416-4.878-14.705-6.089c-0.919-0.211-1.848-0.397-2.786-0.554   c0.018-0.222,0.034-0.444,0.034-0.67V56c0-4.422-3.578-8-8-8s-8,3.578-8,8v152c0,0.226,0.015,0.449,0.034,0.67   c-0.939,0.157-1.867,0.344-2.786,0.554c-5.288,1.211-10.242,3.291-14.704,6.089c-0.809,0.507-1.599,1.039-2.374,1.592   c-4.352,3.104-8.161,6.913-11.265,11.265c-0.549,0.77-1.078,1.556-1.582,2.359c-2.803,4.466-4.886,9.426-6.098,14.72   c-0.21,0.919-0.397,1.847-0.554,2.785c-0.222-0.018-0.444-0.034-0.67-0.034H56c-4.422,0-8,3.578-8,8s3.578,8,8,8h152   c0.226,0,0.449-0.016,0.67-0.034c0.157,0.939,0.343,1.867,0.554,2.787c1.212,5.294,3.295,10.253,6.098,14.719   c0.504,0.803,1.033,1.589,1.582,2.359c3.104,4.352,6.913,8.161,11.265,11.265c0.771,0.549,1.556,1.078,2.36,1.582   c4.466,2.802,9.425,4.886,14.719,6.098c0.919,0.21,1.848,0.397,2.786,0.554c-0.018,0.221-0.034,0.444-0.034,0.67v152   c0,4.422,3.578,8,8,8s8-3.578,8-8V304c0-0.226-0.016-0.449-0.034-0.67c0.939-0.157,1.867-0.344,2.786-0.554   c5.294-1.212,10.253-3.295,14.719-6.098c0.803-0.504,1.589-1.033,2.36-1.582c4.352-3.104,8.161-6.913,11.265-11.265   c0.549-0.771,1.078-1.556,1.582-2.359c2.803-4.466,4.886-9.425,6.098-14.719c0.211-0.919,0.397-1.848,0.554-2.787   c0.221,0.018,0.444,0.034,0.67,0.034h152c4.422,0,8-3.578,8-8S460.422,248,456,248z" fill="#ffffd8"/><path d="M504,248h-16c-4.422,0-8,3.578-8,8s3.578,8,8,8h16c4.422,0,8-3.578,8-8S508.422,248,504,248z" fill="#ffffd8"/><path d="M256,480c-4.422,0-8,3.578-8,8v16c0,4.422,3.578,8,8,8s8-3.578,8-8v-16   C264,483.578,260.422,480,256,480z" fill="#ffffd8"/><path d="M256,32c4.422,0,8-3.578,8-8V8c0-4.422-3.578-8-8-8s-8,3.578-8,8v16C248,28.422,251.578,32,256,32z" fill="#ffffd8"/><path d="M228.169,216.904c-0.144-0.17-0.29-0.338-0.45-0.498L86.297,74.984   c-3.125-3.125-8.188-3.125-11.313,0s-3.125,8.188,0,11.313l141.422,141.422c0.16,0.16,0.328,0.307,0.498,0.45   C220.008,223.817,223.817,220.008,228.169,216.904z" fill="#ffcf00"/><path d="M283.831,295.096c0.144,0.17,0.29,0.338,0.45,0.498l141.422,141.422   c1.563,1.563,3.609,2.344,5.656,2.344s4.094-0.781,5.656-2.344c3.125-3.125,3.125-8.188,0-11.313L295.594,284.281   c-0.16-0.16-0.328-0.307-0.498-0.45C291.992,288.183,288.183,291.992,283.831,295.096z" fill="#ffcf00"/><path d="M216.904,283.831c-0.17,0.144-0.338,0.29-0.498,0.45L74.984,425.703   c-3.125,3.125-3.125,8.188,0,11.313c1.563,1.563,3.609,2.344,5.656,2.344s4.094-0.781,5.656-2.344l141.422-141.422   c0.16-0.16,0.307-0.328,0.45-0.498C223.817,291.992,220.008,288.183,216.904,283.831z" fill="#ffcf00"/><path d="M295.096,228.169c0.17-0.144,0.338-0.29,0.498-0.45L437.015,86.297   c3.125-3.125,3.125-8.188,0-11.313s-8.188-3.125-11.313,0L284.281,216.406c-0.16,0.16-0.307,0.328-0.45,0.498   C288.183,220.008,291.992,223.817,295.096,228.169z" fill="#ffcf00"/><path d="M208.594,266.976L90.336,315.961c-4.078,1.688-6.016,6.367-4.328,10.453   c1.273,3.078,4.258,4.938,7.391,4.938c1.023,0,2.063-0.195,3.063-0.609l118.258-48.984c0.208-0.086,0.407-0.185,0.604-0.286   c-2.802-4.466-4.886-9.425-6.098-14.719C209.013,266.82,208.802,266.89,208.594,266.976z" fill="#ff7400"/><path d="M303.406,245.023l118.258-48.984c4.078-1.688,6.016-6.367,4.328-10.453   c-1.688-4.078-6.391-6-10.453-4.328l-118.258,48.984c-0.208,0.086-0.407,0.185-0.603,0.286c2.803,4.466,4.886,9.426,6.098,14.72   C302.987,245.181,303.198,245.11,303.406,245.023z" fill="#ff7400"/><path d="M297.281,281.758l118.258,48.984c1,0.414,2.039,0.609,3.063,0.609c3.133,0,6.117-1.859,7.391-4.938   c1.688-4.086-0.25-8.766-4.328-10.453l-118.258-48.984c-0.208-0.086-0.419-0.156-0.63-0.224   c-1.212,5.294-3.295,10.253-6.098,14.719C296.875,281.573,297.073,281.672,297.281,281.758z" fill="#ff7400"/><path d="M214.719,230.242L96.461,181.258c-4.063-1.672-8.766,0.242-10.453,4.328s0.25,8.766,4.328,10.453   l118.258,48.984c0.208,0.086,0.419,0.157,0.63,0.225c1.212-5.294,3.295-10.254,6.098-14.72   C215.125,230.427,214.927,230.328,214.719,230.242z" fill="#ff7400"/><path d="M245.023,208.594L196.039,90.336c-1.688-4.086-6.391-6.008-10.453-4.328   c-4.078,1.688-6.016,6.367-4.328,10.453l48.984,118.258c0.086,0.209,0.199,0.397,0.301,0.594c4.462-2.798,9.416-4.878,14.704-6.089   C245.18,209.013,245.109,208.802,245.023,208.594z" fill="#ff7400"/><path d="M266.977,303.406l48.984,118.258c1.273,3.078,4.258,4.938,7.391,4.938   c1.023,0,2.063-0.195,3.063-0.609c4.078-1.688,6.016-6.367,4.328-10.453l-48.984-118.258c-0.086-0.208-0.185-0.406-0.286-0.603   c-4.466,2.802-9.425,4.886-14.719,6.098C266.82,302.987,266.89,303.198,266.977,303.406z" fill="#ff7400"/><path d="M230.242,297.281l-48.984,118.258c-1.688,4.086,0.25,8.766,4.328,10.453   c1,0.414,2.039,0.609,3.063,0.609c3.133,0,6.117-1.859,7.391-4.938l48.984-118.258c0.086-0.208,0.156-0.419,0.224-0.63   c-5.294-1.212-10.253-3.295-14.719-6.098C230.427,296.874,230.328,297.073,230.242,297.281z" fill="#ff7400"/><path d="M281.758,214.719l48.984-118.258c1.688-4.086-0.25-8.766-4.328-10.453   c-4.055-1.688-8.766,0.242-10.453,4.328l-48.984,118.258c-0.086,0.208-0.157,0.419-0.224,0.63   c5.288,1.211,10.242,3.291,14.705,6.089C281.559,215.115,281.671,214.927,281.758,214.719z" fill="#ff7400"/></g><g transform="matrix(0.12131015211343765 0 0 0.12131015211343765 70 288)" id="L1_10"><path d="M267.3,245c24.8-24.8,65.6-43.2,89.6-36l0,0l0,0l0,0l0,0c7.2,24-10.4,64.8-36,89.6  c-24.8,24.8-49.6,27.2-74.4,20l0,0l0,0l0,0l0,0C240.1,295.4,242.5,270.6,267.3,245z" fill="#239b02"/><path d="M247.3,319.4L247.3,319.4L247.3,319.4L247.3,319.4L247.3,319.4c-7.2-24.8-4.8-49.6,20-74.4  s65.6-43.2,89.6-36l0,0l0,0l0,0l0,0" fill="#34b515"/><path d="M227.3,245c-24.8-24.8-65.6-43.2-89.6-36l0,0l0,0l0,0l0,0c-7.2,24,10.4,64.8,36,89.6  c24.8,24.8,49.6,27.2,74.4,20l0,0l0,0l0,0l0,0C254.5,295.4,252.1,270.6,227.3,245z" fill="#239b02"/><path d="M247.3,319.4L247.3,319.4L247.3,319.4L247.3,319.4L247.3,319.4c7.2-24.8,4.8-49.6-20-74.4  s-65.6-43.2-89.6-36l0,0l0,0l0,0l0,0" fill="#34b515"/><rect x="239px" y="198px" width="16px" height="144px" fill="#683100"/><path d="M136.1,334.6c-0.8,0-0.8,10.4-0.8,16c0,73.6,50.4,132,112,132s112-58.4,112-132  c0-6.4-0.8-16.8-0.8-16.8H136.1V334.6z" fill="#894400"/><path d="M247.3,484.2c61.6,0,112-59.2,112-132c0-6.4-0.8-16.8-1.6-16.8H223.3" fill="#683100"/><rect x="127px" y="310px" width="240px" height="32px" fill="#c67812"/><rect x="175px" y="462px" width="144px" height="32px" fill="#683100"/><circle cx="247" cy="105" r="104" fill="#04af76"/><path d="M172.9,30.6c40.8-40.8,107.2-40.8,148.8,0c40.8,40.8,40.8,107.2,0,148.8" fill="#008c61"/><path d="M239.3,190.6v-22.4c-16-0.8-28-4-36-8.8l5.6-23.2c8.8,4.8,20,8.8,32.8,8.8c11.2,0,19.2-4.8,19.2-12.8  s-6.4-12.8-21.6-17.6c-21.6-7.2-35.2-17.6-35.2-36.8c0-17.6,11.2-32,35.2-36V22.6h16v17.6c16,0.8,24,3.2,30.4,6.4L280.1,69  c-5.6-2.4-14.4-7.2-28.8-7.2c-12.8,0-17.6,5.6-17.6,11.2c0,6.4,7.2,11.2,24,17.6c24,8.8,32.8,19.2,32.8,37.6c0,17.6-12,33.6-36,37.6  v24h-15.2V190.6z" fill="#fff6e1"/><g><path d="M247.3,22.6v40.8c0,0,2.4,0,4,0c14.4,0,24,4.8,28.8,7.2l4.8-22.4c-6.4-4-13.6-7.2-29.6-8V22.6H247.3   z" fill="#ffeebd"/><path d="M258.5,91.4c-4-1.6-8.8-3.2-11.2-4.8V117c8,4,14.4,8.8,14.4,14.4c0,6.4-5.6,11.2-14.4,12v47.2h8v-24   c24-4,36-19.2,36-37.6C291.3,111.4,282.5,100.2,258.5,91.4z" fill="#ffeebd"/></g></g><g transform="matrix(0.11901833862066269 0 0 0.11901833862066269 255 204.99999915734088)" id="L1_11"><path d="M15.754,133.909l236.308,118.154L488.37,133.909v252.062L252.062,504.123L15.754,385.969V133.909z" fill="#db5449"/><path d="M15.754,157.538v73.649l235.52,115.397l237.095-115.791v-73.255L252.062,273.33L15.754,157.538z" fill="#c54b42"/><path d="M252.062,504.123V252.063L31.508,141.786H15.754v244.185L252.062,504.123z" fill="#d05045"/><path d="M15.754,157.538v73.649l235.52,115.397l0.788-0.394v-73.255v0.394L15.754,157.538z" fill="#bb483e"/><path d="M0,125.638L252.062,0.001l252.062,125.637v16.542L252.062,267.815L0,142.573V125.638z" fill="#eb6258"/><path d="M396.603,39.779c-8.271-14.966-25.994-24.025-46.868-24.025c-47.655,0-81.132,44.505-97.674,72.862  c-16.542-28.357-50.412-72.468-97.674-72.468c-30.326,0-51.988,18.511-51.988,43.717c0,44.898,49.231,74.043,148.086,74.043  s151.237-37.415,151.237-73.649C401.723,53.17,400.148,46.081,396.603,39.779z M164.628,88.223  c-11.028-7.483-14.966-15.754-14.966-21.268c0-6.695,6.302-11.815,15.36-11.815c21.268,0,38.203,27.963,47.655,47.262  C187.865,100.432,173.292,93.736,164.628,88.223z M339.495,88.223c-8.665,5.514-23.237,12.209-48.049,14.178  c9.058-19.298,25.994-47.262,47.655-47.262c9.058,0,15.36,5.12,15.36,11.815C354.462,72.469,350.523,80.739,339.495,88.223z" fill="#efefef"/><path d="M0,126.032l252.062,123.274l252.062-123.274v81.526l-252.85,123.274L0,207.558V126.032z" fill="#e2574c"/><path d="M346.585,213.859v-9.058l-94.523-51.2l-94.523,51.2v9.058L94.524,186.29v-12.603l154.387-81.526  l3.151,1.575l3.151-1.575L409.6,173.293v12.603L346.585,213.859z" fill="#efefef"/><path d="M346.585,204.801v251.668l63.015-31.508V173.293L346.585,204.801z" fill="#dcdcdc"/><path d="M94.523,425.354l63.015,31.508V205.195l-63.015-31.902C94.523,173.292,94.523,425.354,94.523,425.354  z" fill="#d1d1d1"/></g></defs><g fi:class="KUsePattern" opacity="0.3"><pattern id="pattern_L1_9" width="350" height="350" patternUnits="userSpaceOnUse"><use xlink:href="#L1_9" x="-350" y="-350"/><use xlink:href="#L1_9" x="0" y="-350"/><use xlink:href="#L1_9" x="350" y="-350"/><use xlink:href="#L1_9" x="-350" y="0"/><use xlink:href="#L1_9" x="0" y="0"/><use xlink:href="#L1_9" x="350" y="0"/><use xlink:href="#L1_9" x="-350" y="350"/><use xlink:href="#L1_9" x="0" y="350"/><use xlink:href="#L1_9" x="350" y="350"/></pattern><rect x="0" y="0" width="100%" height="100%" fill="url(#pattern_L1_9)"/></g><g fi:class="KUsePattern" opacity="0.3"><pattern id="pattern_L1_10" width="350" height="350" patternUnits="userSpaceOnUse"><use xlink:href="#L1_10" x="-350" y="-350"/><use xlink:href="#L1_10" x="0" y="-350"/><use xlink:href="#L1_10" x="350" y="-350"/><use xlink:href="#L1_10" x="-350" y="0"/><use xlink:href="#L1_10" x="0" y="0"/><use xlink:href="#L1_10" x="350" y="0"/><use xlink:href="#L1_10" x="-350" y="350"/><use xlink:href="#L1_10" x="0" y="350"/><use xlink:href="#L1_10" x="350" y="350"/></pattern><rect x="0" y="0" width="100%" height="100%" fill="url(#pattern_L1_10)"/></g><g fi:class="KUsePattern" opacity="0.3"><pattern id="pattern_L1_11" width="350" height="350" patternUnits="userSpaceOnUse"><use xlink:href="#L1_11" x="-350" y="-350"/><use xlink:href="#L1_11" x="0" y="-350"/><use xlink:href="#L1_11" x="350" y="-350"/><use xlink:href="#L1_11" x="-350" y="0"/><use xlink:href="#L1_11" x="0" y="0"/><use xlink:href="#L1_11" x="350" y="0"/><use xlink:href="#L1_11" x="-350" y="350"/><use xlink:href="#L1_11" x="0" y="350"/><use xlink:href="#L1_11" x="350" y="350"/></pattern><rect x="0" y="0" width="100%" height="100%" fill="url(#pattern_L1_11)"/></g></svg>